<?xml version="1.0" encoding="iso-8859-1"?>
<!-- Generator: Adobe Illustrator 19.0.0, SVG Export Plug-In . SVG Version: 6.00 Build 0)  -->
<svg version="1.1" id="Layer_1" xmlns="http://www.w3.org/2000/svg" xmlns:xlink="http://www.w3.org/1999/xlink" x="0px" y="0px"
	 viewBox="0 0 512 512" style="enable-background:new 0 0 512 512;" xml:space="preserve">
<g>
	<path style="fill:#98D9D5;" d="M220.087,197.129c-3.616,2.704-8.734,1.965-11.437-1.649L77.6,20.239
		c-17.405,17.922-19.724,46.41-4.298,67.039l111.017,148.45c2.702,3.613,1.963,8.732-1.649,11.436l10.407,13.917l37.415-50.039
		L220.087,197.129z"/>
	<path style="fill:#98D9D5;" d="M282.951,367.62l65.2,87.185c14.216,19.009,33.782,32.525,55.093,38.057
		c22.959,5.958,46.157,1.879,63.64-11.194c17.483-13.073,27.954-34.171,28.728-57.88c0.718-22.006-6.715-44.595-20.93-63.604
		c-14.216-19.009-33.782-32.524-55.094-38.056c-22.96-5.959-46.157-1.881-63.639,11.194c-6.61,4.943-12.266,11.062-16.809,18.188
		c-1.442,2.263-3.903,3.672-6.585,3.772c-2.637,0.095-5.24-1.122-6.847-3.271l-18.316-24.493c-2.703-3.612-1.964-8.73,1.646-11.433
		l-10.529-14.079l-37.411,50.032l10.419,13.933C275.128,363.269,280.25,364.008,282.951,367.62z M343.56,391.735
		c0.619-18.994,8.496-35.089,22.178-45.322c9.318-6.969,20.736-10.652,33.022-10.652c23.321,0,46.81,12.789,62.829,34.211
		c25.187,33.68,23.172,77.912-4.494,98.602c-9.319,6.968-20.737,10.652-33.018,10.652c-23.328-0.001-46.815-12.791-62.834-34.211
		C349.241,428.967,342.962,410.045,343.56,391.735z"/>
</g>
<path style="fill:#F2EBD9;" d="M174.748,340.164L407.034,29.509l-13.086-9.786L163.093,328.464
	C167.408,331.937,171.3,335.863,174.748,340.164z"/>
<path style="fill:#C1E8E6;" d="M163.849,454.806L424.031,106.85c15.426-20.63,13.103-49.113-4.301-67.034L186.293,352.01
	c-1.605,2.146-4.062,3.278-6.549,3.278c-1.703,0-3.418-0.529-4.886-1.627c-3.613-2.702-4.353-7.822-1.65-11.436l1.541-2.061
	c-3.448-4.301-7.339-8.227-11.654-11.701l-0.084,0.112c-2.564,3.431-7.346,4.3-10.954,1.985
	c-11.341-7.271-24.819-11.116-38.975-11.116c-6.86,0-13.813,0.902-20.668,2.681c-21.312,5.533-40.879,19.047-55.094,38.057
	c-14.215,19.009-21.649,41.597-20.93,63.604c0.773,23.71,11.244,44.806,28.727,57.88c12.14,9.078,26.995,13.877,42.96,13.877
	c6.864,0,13.821-0.903,20.68-2.683C130.068,487.331,149.634,473.815,163.849,454.806z M87.927,479.227
	c-12.284,0-23.702-3.683-33.021-10.652c-27.665-20.689-29.682-64.921-4.496-98.602c16.02-21.422,39.509-34.211,62.83-34.211
	c12.285,0,23.703,3.683,33.022,10.652c13.682,10.232,21.558,26.327,22.178,45.322c0.598,18.311-5.682,37.233-17.682,53.281
	C134.737,466.437,111.249,479.227,87.927,479.227z"/>
<g>
	<path style="fill:#082947;" d="M437.118,116.635c22.487-30.072,16.315-72.831-13.756-95.319L397.19,1.743
		c-1.735-1.297-3.915-1.856-6.06-1.544c-2.145,0.309-4.079,1.458-5.377,3.194L230.49,211.041l-37.415,50.039l-38.807,51.9
		c-12.46-6.48-26.551-9.875-41.188-9.875c-8.243,0-16.578,1.078-24.773,3.205c-24.891,6.461-47.646,22.117-64.075,44.086
		C7.804,372.365-0.782,398.618,0.056,424.319c0.937,28.698,13.793,54.37,35.272,70.434c14.987,11.207,33.225,17.131,52.745,17.132
		c8.249,0,16.587-1.08,24.786-3.207c24.89-6.46,47.645-22.116,64.075-44.086l84.162-112.554l37.411-50.032L437.118,116.635z
		 M88.077,495.545c-15.967,0-30.822-4.8-42.962-13.877c-17.482-13.073-27.953-34.171-28.727-57.88
		c-0.718-22.007,6.716-44.596,20.93-63.604s33.781-32.524,55.094-38.057c6.854-1.779,13.809-2.681,20.668-2.681
		c14.156,0,27.634,3.843,38.975,11.116c3.608,2.315,8.388,1.447,10.954-1.985l0.084-0.112L393.948,19.723l13.086,9.786
		L174.748,340.164l-1.541,2.061c-2.702,3.613-1.963,8.733,1.65,11.436c1.468,1.098,3.184,1.627,4.886,1.627
		c2.488,0,4.946-1.133,6.549-3.278L419.731,39.817c17.404,17.921,19.727,46.403,4.301,67.034L163.849,454.806
		c-14.216,19.009-33.782,32.525-55.094,38.057C101.896,494.642,94.939,495.545,88.077,495.545z"/>
	<path style="fill:#082947;" d="M168.44,391.735c-0.62-18.994-8.496-35.089-22.178-45.322c-9.318-6.969-20.737-10.652-33.022-10.652
		c-23.322,0-46.81,12.789-62.83,34.211c-25.186,33.68-23.17,77.912,4.496,98.602c9.318,6.969,20.737,10.652,33.021,10.652
		c23.322,0,46.81-12.789,62.83-34.211C162.758,428.967,169.038,410.045,168.44,391.735z M64.692,455.489
		c-20.449-15.294-20.987-49.265-1.196-75.73c12.757-17.059,31.818-27.658,49.745-27.658c8.729,0,16.764,2.558,23.235,7.398
		c9.626,7.198,15.178,18.836,15.633,32.769c0.477,14.616-4.65,29.874-14.437,42.961c-12.757,17.059-31.818,27.658-49.745,27.658
		C79.198,462.887,71.164,460.328,64.692,455.489z"/>
	<path style="fill:#082947;" d="M487.768,350.396c-16.429-21.969-39.184-37.626-64.074-44.085
		c-27.798-7.217-56.052-2.138-77.531,13.924c-5.141,3.843-9.81,8.253-13.959,13.176l-11.727-15.681
		c-2.702-3.613-7.823-4.351-11.435-1.65c-3.615,2.706-4.352,7.824-1.65,11.436l18.316,24.493c1.608,2.149,4.209,3.366,6.847,3.271
		c2.682-0.1,5.143-1.51,6.585-3.772c4.543-7.125,10.197-13.244,16.809-18.188c17.482-13.076,40.679-17.154,63.639-11.194
		c21.312,5.532,40.878,19.046,55.094,38.056c14.215,19.009,21.648,41.598,20.93,63.604c-0.773,23.71-11.244,44.806-28.728,57.88
		c-17.483,13.073-40.681,17.153-63.64,11.194c-21.311-5.532-40.877-19.046-55.093-38.057l-65.2-87.185
		c-2.701-3.613-7.823-4.352-11.435-1.65c-3.614,2.703-4.354,7.823-1.65,11.436l65.2,87.185
		c16.429,21.969,39.184,37.626,64.074,44.086c8.288,2.151,16.617,3.209,24.796,3.209c19.248,0,37.661-5.861,52.735-17.135
		c21.48-16.064,34.337-41.736,35.273-70.434C512.783,398.619,504.197,372.366,487.768,350.396z"/>
	<path style="fill:#082947;" d="M184.318,235.728L73.302,87.278C57.876,66.647,60.196,38.161,77.6,20.239l131.049,175.241
		c2.703,3.613,7.822,4.353,11.436,1.65c3.613-2.704,4.352-7.823,1.65-11.436L85.407,3.394c-2.702-3.612-7.822-4.353-11.436-1.65
		C43.899,24.231,37.728,66.991,60.216,97.062l111.017,148.45c1.605,2.146,4.061,3.278,6.549,3.278c1.703,0,3.418-0.531,4.887-1.628
		C186.282,244.46,187.021,239.341,184.318,235.728z"/>
	<path style="fill:#082947;" d="M424.073,479.227c12.285,0,23.703-3.683,33.022-10.652c27.665-20.69,29.681-64.923,4.494-98.602
		c-16.019-21.422-39.508-34.211-62.829-34.211c-12.285,0-23.703,3.683-33.022,10.652c-13.683,10.231-21.56,26.327-22.178,45.322
		c-0.598,18.311,5.682,37.232,17.682,53.281C377.262,466.436,400.75,479.225,424.073,479.227z M359.891,392.268
		c0.455-13.933,6.008-25.57,15.633-32.769c6.472-4.839,14.506-7.398,23.236-7.398c17.925,0,36.986,10.598,49.743,27.658
		c19.79,26.464,19.254,60.437-1.195,75.73c-6.472,4.839-14.505,7.398-23.232,7.398c-17.93-0.001-36.991-10.598-49.749-27.658
		C364.541,422.141,359.414,406.884,359.891,392.268z"/>
</g>
<g>
</g>
<g>
</g>
<g>
</g>
<g>
</g>
<g>
</g>
<g>
</g>
<g>
</g>
<g>
</g>
<g>
</g>
<g>
</g>
<g>
</g>
<g>
</g>
<g>
</g>
<g>
</g>
<g>
</g>
</svg>
